<svg width="33" height="31" viewBox="0 0 33 31" fill="none" xmlns="http://www.w3.org/2000/svg">
<path d="M15.2182 1.13051C15.8195 -0.0877186 17.5566 -0.0877218 18.1578 1.13051L21.7989 8.50818C22.0377 8.99194 22.4992 9.32725 23.0331 9.40482L31.1748 10.5879C32.5192 10.7832 33.056 12.4354 32.0832 13.3836L26.1918 19.1264C25.8055 19.5029 25.6292 20.0454 25.7204 20.5771L27.1112 28.686C27.3408 30.025 25.9354 31.046 24.733 30.4139L17.4508 26.5854C16.9733 26.3343 16.4028 26.3343 15.9253 26.5854L8.64311 30.4139C7.44065 31.046 6.03525 30.025 6.2649 28.686L7.65568 20.5771C7.74687 20.0454 7.57059 19.5029 7.18429 19.1264L1.29287 13.3836C0.320051 12.4354 0.856861 10.7832 2.20126 10.5879L10.343 9.40482C10.8769 9.32725 11.3384 8.99194 11.5771 8.50818L15.2182 1.13051Z" fill="#F2BB14"/>
</svg>
